<svg xmlns="http://www.w3.org/2000/svg" version="1.1" xmlns:xlink="http://www.w3.org/1999/xlink" xmlns:svgjs="http://svgjs.dev/svgjs" width="1000" height="202" viewBox="0 0 1000 202"><g transform="matrix(1,0,0,1,-0.6060606060606233,0.45115665817372985)"><svg viewBox="0 0 396 80" data-background-color="#fd5c63" preserveAspectRatio="xMidYMid meet" height="202" width="1000" xmlns="http://www.w3.org/2000/svg" xmlns:xlink="http://www.w3.org/1999/xlink"><g id="tight-bounds" transform="matrix(1,0,0,1,0.2400000000000091,-0.17867590422721946)"><svg viewBox="0 0 395.52 80.35735180845442" height="80.35735180845442" width="395.52"><g><svg viewBox="0 0 531.7854773430593 108.04225497947786" height="80.35735180845442" width="395.52"><g transform="matrix(1,0,0,1,136.26547734305933,24.133271075298794)"><svg viewBox="0 0 395.52 59.77571282888027" height="59.77571282888027" width="395.52"><g id="textblocktransform"><svg viewBox="0 0 395.52 59.77571282888027" height="59.77571282888027" width="395.52" id="textblock"><g><svg viewBox="0 0 395.52 59.77571282888027" height="59.77571282888027" width="395.52"><g transform="matrix(1,0,0,1,0,0)"><svg width="395.52" viewBox="3.7 -36.55 245.13000000000002 37.05" height="59.77571282888027" data-palette-color="#ffffff"><path d="M10.4 0L4.9 0Q4.4 0 4.05-0.35 3.7-0.7 3.7-1.25L3.7-1.25 3.7-33.75Q3.7-34.3 4.05-34.65 4.4-35 4.9-35L4.9-35 10.4-35Q10.95-35 11.3-34.65 11.65-34.3 11.65-33.75L11.65-33.75 11.65-21.25 25.2-21.25 25.2-33.75Q25.2-34.3 25.55-34.65 25.9-35 26.4-35L26.4-35 31.9-35Q32.45-35 32.8-34.65 33.15-34.3 33.15-33.75L33.15-33.75 33.15-1.25Q33.15-0.7 32.8-0.35 32.45 0 31.9 0L31.9 0 26.4 0Q25.9 0 25.55-0.35 25.2-0.7 25.2-1.25L25.2-1.25 25.2-14.15 11.65-14.15 11.65-1.25Q11.65-0.7 11.3-0.35 10.95 0 10.4 0L10.4 0ZM51.9 0.5L51.9 0.5Q47.75 0.5 44.95-0.88 42.15-2.25 40.67-4.8 39.2-7.35 39.05-10.75L39.05-10.75Q39-11.75 39-13.03 39-14.3 39.05-15.25L39.05-15.25Q39.2-18.7 40.75-21.23 42.3-23.75 45.1-25.13 47.9-26.5 51.9-26.5L51.9-26.5Q55.85-26.5 58.65-25.13 61.45-23.75 63-21.23 64.55-18.7 64.75-15.25L64.75-15.25Q64.8-14.3 64.8-13.03 64.8-11.75 64.75-10.75L64.75-10.75Q64.55-7.35 63.07-4.8 61.6-2.25 58.8-0.88 56 0.5 51.9 0.5ZM51.9-5.05L51.9-5.05Q54.35-5.05 55.57-6.55 56.8-8.05 56.95-11L56.95-11Q57-11.75 57-13 57-14.25 56.95-15L56.95-15Q56.8-17.9 55.57-19.43 54.35-20.95 51.9-20.95L51.9-20.95Q49.45-20.95 48.2-19.43 46.95-17.9 46.8-15L46.8-15Q46.75-14.25 46.75-13 46.75-11.75 46.8-11L46.8-11Q46.95-8.05 48.2-6.55 49.45-5.05 51.9-5.05ZM76.3 0L71.25 0Q70.75 0 70.37-0.35 70-0.7 70-1.25L70-1.25 70-24.75Q70-25.3 70.37-25.65 70.75-26 71.25-26L71.25-26 75.9-26Q76.45-26 76.8-25.65 77.15-25.3 77.15-24.75L77.15-24.75 77.15-23.05Q78.2-24.45 79.97-25.45 81.75-26.45 84.2-26.5L84.2-26.5Q89.95-26.6 92.15-22.1L92.15-22.1Q93.3-24.05 95.45-25.28 97.6-26.5 100.2-26.5L100.2-26.5Q102.8-26.5 104.9-25.33 107-24.15 108.25-21.73 109.5-19.3 109.5-15.5L109.5-15.5 109.5-1.25Q109.5-0.7 109.12-0.35 108.75 0 108.25 0L108.25 0 103.3 0Q102.75 0 102.4-0.35 102.05-0.7 102.05-1.25L102.05-1.25 102.05-15.1Q102.05-17.15 101.47-18.3 100.9-19.45 99.92-19.98 98.95-20.5 97.75-20.5L97.75-20.5Q96.7-20.5 95.72-19.98 94.75-19.45 94.12-18.3 93.5-17.15 93.5-15.1L93.5-15.1 93.5-1.25Q93.5-0.7 93.15-0.35 92.8 0 92.3 0L92.3 0 87.35 0Q86.8 0 86.45-0.35 86.1-0.7 86.1-1.25L86.1-1.25 86.1-15.1Q86.1-17.15 85.5-18.3 84.9-19.45 83.92-19.98 82.95-20.5 81.8-20.5L81.8-20.5Q80.75-20.5 79.77-19.98 78.8-19.45 78.17-18.3 77.55-17.15 77.55-15.15L77.55-15.15 77.55-1.25Q77.55-0.7 77.2-0.35 76.85 0 76.3 0L76.3 0ZM127.09 0.5L127.09 0.5Q121.34 0.5 117.97-2.7 114.59-5.9 114.39-12L114.39-12Q114.39-12.4 114.39-13.08 114.39-13.75 114.39-14.1L114.39-14.1Q114.59-18 116.14-20.78 117.69-23.55 120.49-25.03 123.29-26.5 127.04-26.5L127.04-26.5Q131.29-26.5 134.09-24.78 136.89-23.05 138.32-20.08 139.74-17.1 139.74-13.25L139.74-13.25 139.74-12.1Q139.74-11.6 139.39-11.23 139.04-10.85 138.49-10.85L138.49-10.85 122.19-10.85Q122.19-10.85 122.19-10.73 122.19-10.6 122.19-10.5L122.19-10.5Q122.24-8.9 122.79-7.58 123.34-6.25 124.42-5.45 125.49-4.65 127.04-4.65L127.04-4.65Q128.24-4.65 129.04-5.03 129.84-5.4 130.37-5.88 130.89-6.35 131.14-6.7L131.14-6.7Q131.59-7.25 131.87-7.38 132.14-7.5 132.69-7.5L132.69-7.5 137.99-7.5Q138.44-7.5 138.77-7.2 139.09-6.9 139.04-6.45L139.04-6.45Q138.99-5.6 138.22-4.42 137.44-3.25 135.94-2.13 134.44-1 132.22-0.25 129.99 0.5 127.09 0.5ZM122.19-15.6L122.19-15.45 131.94-15.45 131.94-15.6Q131.94-17.35 131.37-18.68 130.79-20 129.69-20.75 128.59-21.5 127.04-21.5L127.04-21.5Q125.49-21.5 124.42-20.75 123.34-20 122.77-18.68 122.19-17.35 122.19-15.6L122.19-15.6ZM152.04 0L146.54 0Q146.04 0 145.69-0.35 145.34-0.7 145.34-1.25L145.34-1.25 145.34-33.75Q145.34-34.3 145.69-34.65 146.04-35 146.54-35L146.54-35 152.04-35Q152.59-35 152.94-34.65 153.29-34.3 153.29-33.75L153.29-33.75 153.29-21.25 166.84-21.25 166.84-33.75Q166.84-34.3 167.19-34.65 167.54-35 168.04-35L168.04-35 173.54-35Q174.09-35 174.44-34.65 174.79-34.3 174.79-33.75L174.79-33.75 174.79-1.25Q174.79-0.7 174.44-0.35 174.09 0 173.54 0L173.54 0 168.04 0Q167.54 0 167.19-0.35 166.84-0.7 166.84-1.25L166.84-1.25 166.84-14.15 153.29-14.15 153.29-1.25Q153.29-0.7 152.94-0.35 152.59 0 152.04 0L152.04 0ZM187.89 0L182.84 0Q182.34 0 181.96-0.35 181.59-0.7 181.59-1.25L181.59-1.25 181.59-24.75Q181.59-25.3 181.96-25.65 182.34-26 182.84-26L182.84-26 187.89-26Q188.39-26 188.74-25.65 189.09-25.3 189.09-24.75L189.09-24.75 189.09-1.25Q189.09-0.7 188.74-0.35 188.39 0 187.89 0L187.89 0ZM187.99-30L182.69-30Q182.19-30 181.84-30.35 181.49-30.7 181.49-31.25L181.49-31.25 181.49-35.3Q181.49-35.8 181.84-36.18 182.19-36.55 182.69-36.55L182.69-36.55 187.99-36.55Q188.49-36.55 188.86-36.18 189.24-35.8 189.24-35.3L189.24-35.3 189.24-31.25Q189.24-30.7 188.86-30.35 188.49-30 187.99-30L187.99-30ZM209.09 0L204.59 0Q203.84 0 203.46-0.38 203.09-0.75 202.84-1.25L202.84-1.25 193.44-24.45Q193.34-24.65 193.34-24.9L193.34-24.9Q193.34-25.35 193.66-25.68 193.99-26 194.44-26L194.44-26 199.29-26Q199.94-26 200.26-25.65 200.59-25.3 200.69-25L200.69-25 206.84-8.55 212.99-25Q213.14-25.3 213.44-25.65 213.74-26 214.39-26L214.39-26 219.24-26Q219.69-26 220.01-25.68 220.34-25.35 220.34-24.9L220.34-24.9Q220.34-24.65 220.29-24.45L220.29-24.45 210.89-1.25Q210.69-0.75 210.29-0.38 209.89 0 209.09 0L209.09 0ZM236.18 0.5L236.18 0.5Q230.43 0.5 227.06-2.7 223.68-5.9 223.48-12L223.48-12Q223.48-12.4 223.48-13.08 223.48-13.75 223.48-14.1L223.48-14.1Q223.68-18 225.23-20.78 226.78-23.55 229.58-25.03 232.38-26.5 236.13-26.5L236.13-26.5Q240.38-26.5 243.18-24.78 245.98-23.05 247.41-20.08 248.83-17.1 248.83-13.25L248.83-13.25 248.83-12.1Q248.83-11.6 248.48-11.23 248.13-10.85 247.58-10.85L247.58-10.85 231.28-10.85Q231.28-10.85 231.28-10.73 231.28-10.6 231.28-10.5L231.28-10.5Q231.33-8.9 231.88-7.58 232.43-6.25 233.51-5.45 234.58-4.65 236.13-4.65L236.13-4.65Q237.33-4.65 238.13-5.03 238.93-5.4 239.46-5.88 239.98-6.35 240.23-6.7L240.23-6.7Q240.68-7.25 240.96-7.38 241.23-7.5 241.78-7.5L241.78-7.5 247.08-7.5Q247.53-7.5 247.86-7.2 248.18-6.9 248.13-6.45L248.13-6.45Q248.08-5.6 247.31-4.42 246.53-3.25 245.03-2.13 243.53-1 241.31-0.25 239.08 0.5 236.18 0.5ZM231.28-15.6L231.28-15.45 241.03-15.45 241.03-15.6Q241.03-17.35 240.46-18.68 239.88-20 238.78-20.75 237.68-21.5 236.13-21.5L236.13-21.5Q234.58-21.5 233.51-20.75 232.43-20 231.86-18.68 231.28-17.35 231.28-15.6L231.28-15.6Z" opacity="1" transform="matrix(1,0,0,1,0,0)" fill="#ffffff" class="undefined-text-0" data-fill-palette-color="primary" id="text-0"></path></svg></g></svg></g></svg></g></svg></g><g><svg viewBox="0 0 108.04225497947786 108.04225497947786" height="108.04225497947786" width="108.04225497947786"><g><svg></svg></g><g id="icon-0"><svg viewBox="0 0 108.04225497947786 108.04225497947786" height="108.04225497947786" width="108.04225497947786"><g><path d="M0 54.021c0-29.835 24.186-54.021 54.021-54.021 29.835 0 54.021 24.186 54.021 54.021 0 29.835-24.186 54.021-54.021 54.021-29.835 0-54.021-24.186-54.021-54.021zM54.021 102.652c26.858 0 48.63-21.773 48.631-48.631 0-26.858-21.773-48.63-48.631-48.63-26.858 0-48.63 21.773-48.63 48.63 0 26.858 21.773 48.63 48.63 48.631z" data-fill-palette-color="accent" fill="#ffffff" stroke="transparent"></path><ellipse rx="53.48091621484154" ry="53.48091621484154" cx="54.02112748973893" cy="54.02112748973893" fill="#ffffff" stroke="transparent" stroke-width="0" fill-opacity="1" data-fill-palette-color="accent"></ellipse></g><g transform="matrix(1,0,0,1,23.78381924361835,35.43860822421867)"><svg viewBox="0 0 60.47461649224116 37.16503853104053" height="37.16503853104053" width="60.47461649224116"><g><svg xmlns="http://www.w3.org/2000/svg" data-name="Layer 1" viewBox="2.430551295781235 20.791724898981606 95.13905147020833 58.4682751010184" x="0" y="0" height="37.16503853104053" width="60.47461649224116" class="icon-n$-0" data-fill-palette-color="quaternary" id="n$-0"><path d="M62.78 23l32 55.42 1.3-2.26h-64l1.3 2.26L65.37 23a1.5 1.5 0 0 0-2.59-1.51L30.79 77a1.51 1.51 0 0 0 1.3 2.26h64A1.51 1.51 0 0 0 97.37 77l-32-55.42A1.5 1.5 0 0 0 62.78 23Z" fill="#fd5c63" data-fill-palette-color="quaternary"></path><path d="M34.63 23l32 55.42 1.3-2.26h-64l1.3 2.26L37.22 23a1.5 1.5 0 0 0-2.59-1.51L2.63 77a1.51 1.51 0 0 0 1.3 2.26h64A1.51 1.51 0 0 0 69.21 77l-32-55.42A1.5 1.5 0 0 0 34.63 23Z" fill="#fd5c63" data-fill-palette-color="quaternary"></path></svg></g></svg></g></svg></g></svg></g></svg></g><defs></defs></svg><rect width="395.52" height="80.35735180845442" fill="none" stroke="none" visibility="hidden"></rect></g></svg></g></svg>